nColumns=28
nRows=26
DataType=double
version=3
OpenSimVersion=4.1
endheader
time	ground_force_1_vx	ground_force_1_vy	ground_force_1_vz	ground_force_1_px	ground_force_1_py	ground_force_1_pz	ground_force_1_mx	ground_force_1_my	ground_force_1_mz	ground_force_2_vx	ground_force_2_vy	ground_force_2_vz	ground_force_2_px	ground_force_2_py	ground_force_2_pz	ground_force_2_mx	ground_force_2_my	ground_force_2_mz	ground_force_3_vx	ground_force_3_vy	ground_force_3_vz	ground_force_3_px	ground_force_3_py	ground_force_3_pz	ground_force_3_mx	ground_force_3_my	ground_force_3_mz
10.05	8.45532	506.465	-48.4353	-0.230159	0.006	-0.384493	0	-2.44377	0	0.423804	196.934	41.8553	-0.208856	0.006	-0.758943	0	1.71601	0	0	0	0	0	0	0	0	0	0
10.06	7.87076	504.546	-48.9689	-0.229852	0.006	-0.384267	0	-2.4781	0	0.561571	196.973	41.8707	-0.20941	0.006	-0.758952	0	1.67613	0	0	0	0	0	0	0	0	0	0
10.07	7.23881	501.861	-49.4149	-0.229546	0.006	-0.384049	0	-2.50294	0	0.68642	196.918	41.8847	-0.209953	0.006	-0.758982	0	1.63606	0	0	0	0	0	0	0	0	0	0
10.08	6.57317	498.34	-49.7406	-0.229263	0.006	-0.38385	0	-2.51651	0	0.801395	196.742	41.8961	-0.210487	0.006	-0.759034	0	1.59617	0	0	0	0	0	0	0	0	0	0
10.09	5.8814	493.928	-49.9158	-0.229021	0.006	-0.383681	0	-2.51733	0	0.908336	196.428	41.9037	-0.211009	0.006	-0.759106	0	1.55681	0	0	0	0	0	0	0	0	0	0
10.1	5.16537	488.602	-49.9138	-0.228837	0.006	-0.383551	0	-2.50414	0	1.00681	195.966	41.9077	-0.211515	0.006	-0.759198	0	1.51817	0	0	0	0	0	0	0	0	0	0
10.11	4.42454	482.365	-49.7132	-0.228718	0.006	-0.383469	0	-2.476	0	1.09386	195.354	41.9082	-0.211997	0.006	-0.75931	0	1.48016	0	0	0	0	0	0	0	0	0	0
10.12	3.65886	475.25	-49.2983	-0.228668	0.006	-0.383442	0	-2.4323	0	1.16507	194.585	41.9041	-0.212438	0.006	-0.759438	0	1.44241	0	0	0	0	0	0	0	0	0	0
10.13	2.87108	467.307	-48.6605	-0.228685	0.006	-0.383473	0	-2.37282	0	1.21649	193.651	41.8903	-0.212821	0.006	-0.75958	0	1.40441	0	0	0	0	0	0	0	0	0	0
10.14	2.06692	458.599	-47.7991	-0.228762	0.006	-0.383565	0	-2.29777	0	1.24712	192.54	41.8569	-0.213132	0.006	-0.759727	0	1.36577	0	0	0	0	0	0	0	0	0	0
10.15	1.25486	449.195	-46.7222	-0.228889	0.006	-0.383716	0	-2.20798	0	1.26054	191.233	41.7886	-0.213364	0.006	-0.759867	0	1.32636	0	0	0	0	0	0	0	0	0	0
10.16	0.446361	439.173	-45.4465	-0.229053	0.006	-0.383923	0	-2.10494	0	1.26502	189.708	41.666	-0.213521	0.006	-0.759985	0	1.28633	0	0	0	0	0	0	0	0	0	0
10.17	-0.343222	428.627	-43.9966	-0.229243	0.006	-0.384181	0	-1.99081	0	1.27251	187.938	41.466	-0.213613	0.006	-0.760063	0	1.24612	0	0	0	0	0	0	0	0	0	0
10.18	-1.09392	417.671	-42.404	-0.22945	0.006	-0.384483	0	-1.86841	0	1.29642	185.898	41.165	-0.21366	0.006	-0.760082	0	1.20617	0	0	0	0	0	0	0	0	0	0
10.19	-1.78166	406.44	-40.7057	-0.229668	0.006	-0.384818	0	-1.74117	0	1.34884	183.567	40.7417	-0.213681	0.006	-0.760025	0	1.1667	0	0	0	0	0	0	0	0	0	0
10.2	-2.38172	395.084	-38.9446	-0.229896	0.006	-0.385175	0	-1.613	0	1.43793	180.932	40.1797	-0.213693	0.006	-0.759875	0	1.12764	0	0	0	0	0	0	0	0	0	0
10.21	-2.87356	383.762	-37.1679	-0.230133	0.006	-0.385542	0	-1.48802	0	1.56651	177.986	39.4681	-0.213711	0.006	-0.759616	0	1.08864	0	0	0	0	0	0	0	0	0	0
10.22	-3.2441	372.645	-35.4249	-0.23038	0.006	-0.385904	0	-1.37024	0	1.73203	174.73	38.6012	-0.21374	0.006	-0.759234	0	1.04898	0	0	0	0	0	0	0	0	0	0
10.23	-3.48971	361.909	-33.7643	-0.230636	0.006	-0.386246	0	-1.26331	0	1.92764	171.176	37.5773	-0.213785	0.006	-0.758715	0	1.00764	0	0	0	0	0	0	0	0	0	0
10.24	-3.6164	351.731	-32.2321	-0.230895	0.006	-0.386552	0	-1.17025	0	2.14356	167.346	36.3999	-0.213841	0.006	-0.75805	0	0.963406	0	0	0	0	0	0	0	0	0	0
10.25	-3.63826	342.275	-30.8685	-0.231152	0.006	-0.386808	0	-1.09308	0	2.36717	163.279	35.0792	-0.213901	0.006	-0.757234	0	0.915017	0	0	0	0	0	0	0	0	0	0
10.26	-3.57496	333.693	-29.7057	-0.231399	0.006	-0.387002	0	-1.03272	0	2.58303	159.046	33.6344	-0.213955	0.006	-0.756269	0	0.861389	0	0	0	0	0	0	0	0	0	0
10.27	-3.44864	326.117	-28.7655	-0.231628	0.006	-0.387127	0	-0.988976	0	2.77377	154.743	32.0942	-0.213993	0.006	-0.755165	0	0.801702	0	0	0	0	0	0	0	0	0	0
10.28	-3.27978	319.657	-28.0567	-0.231833	0.006	-0.387179	0	-0.960621	0	2.92134	150.501	30.4963	-0.214007	0.006	-0.753939	0	0.735497	0	0	0	0	0	0	0	0	0	0
10.29	-3.08624	314.382	-27.575	-0.232009	0.006	-0.387161	0	-0.945544	0	3.00919	146.469	28.8846	-0.213992	0.006	-0.752623	0	0.662898	0	0	0	0	0	0	0	0	0	0
10.3	-2.88341	310.316	-27.3029	-0.232155	0.006	-0.38708	0	-0.940958	0	3.02545	142.812	27.3074	-0.213945	0.006	-0.75126	0	0.584823	0	0	0	0	0	0	0	0	0	0
